<?xml version="1.0" encoding="UTF-8"?>
<svg version="1.1" xmlns="http://www.w3.org/2000/svg" width="256" height="256">
<path d="M0 0 C15.47773717 13.2582326 27.6723522 28.29848238 36 47 C36.51304687 48.13695313 37.02609375 49.27390625 37.5546875 50.4453125 C44.116976 65.53136918 46.69027231 80.64307911 46.52148438 97.03173828 C46.49999981 99.50002154 46.52145486 101.96539627 46.546875 104.43359375 C46.60470716 137.51195127 32.18200227 167.74709063 9.25 191.1875 C2.72192409 197.65272082 -4.2390885 203.09771516 -12 208 C-12.61568848 208.39026367 -13.23137695 208.78052734 -13.86572266 209.18261719 C-21.46222936 213.90924588 -29.24642806 217.73314124 -37.625 220.875 C-38.71494263 221.28625122 -38.71494263 221.28625122 -39.8269043 221.70581055 C-53.57633363 226.59345119 -66.68035485 227.57608486 -81.125 227.5 C-82.03485657 227.49790527 -82.94471313 227.49581055 -83.88214111 227.49365234 C-97.17117564 227.43046456 -109.49006272 226.86671587 -122 222 C-123.19906982 221.55793213 -123.19906982 221.55793213 -124.42236328 221.10693359 C-156.92944025 208.99002935 -182.45971532 185.97437151 -198 155 C-199.8547869 150.72382029 -201.47391535 146.40284193 -203 142 C-203.28488281 141.24589844 -203.56976563 140.49179688 -203.86328125 139.71484375 C-208.34310285 127.42405115 -209.51715118 115.01321976 -209.44604492 102.04907227 C-209.4375421 99.6991365 -209.4664234 97.35165088 -209.49804688 95.00195312 C-209.65056439 62.03862157 -194.71051149 31.46377218 -172.05859375 8.03125 C-163.03064111 -1.03965198 -153.09516871 -7.79649538 -142 -14 C-141.195625 -14.47050781 -140.39125 -14.94101563 -139.5625 -15.42578125 C-95.75373613 -39.44237145 -37.76324707 -31.68580565 0 0 Z " fill="#B000FE" transform="translate(209,29)"/>
<path d="M0 0 C0.66 0 1.32 0 2 0 C5.00073176 13.10425943 7.15919635 26.24157241 9.0625 39.546875 C9.81761108 44.81730478 10.65559781 50.06636435 11.5625 55.3125 C13.12852715 64.48494474 14.3806888 73.69209514 15.59082031 82.91748047 C16.0041677 86.03139699 16.434781 89.14258395 16.8671875 92.25390625 C19.34106031 110.37958169 21.28592779 128.55647909 23.1875 146.75 C23.38613144 148.62975525 23.38613144 148.62975525 23.58877563 150.54748535 C25.11329597 165.02326477 26.44866124 179.45184319 27 194 C3.28422884 209.51123126 -19.6269873 217.65010873 -48.125 217.5 C-49.03485657 217.49790527 -49.94471313 217.49581055 -50.88214111 217.49365234 C-64.17117564 217.43046456 -76.49006272 216.86671587 -89 212 C-90.19906982 211.55793213 -90.19906982 211.55793213 -91.42236328 211.10693359 C-101.9983874 207.16475597 -111.64373176 202.315901 -121 196 C-117.90725133 184.1107903 -114.2467667 172.46589023 -110.29907227 160.83276367 C-104.33636059 146.22121068 -104.33636059 146.22121068 -103 131 C-104.67514236 127.79537983 -106.67414292 125.38058597 -109.0234375 122.63671875 C-117.0183048 113.20932403 -124.20114887 103.50569624 -124.0625 90.75 C-124.05347656 89.67234375 -124.04445312 88.5946875 -124.03515625 87.484375 C-124.02355469 86.66453125 -124.01195312 85.8446875 -124 85 C-123.49210937 85.33773437 -122.98421875 85.67546875 -122.4609375 86.0234375 C-121.42839844 86.69246094 -121.42839844 86.69246094 -120.375 87.375 C-119.36566406 88.03628906 -119.36566406 88.03628906 -118.3359375 88.7109375 C-113.25298781 91.51590974 -108.7097269 92.29365704 -102.9375 92.3125 C-101.15666016 92.33763672 -101.15666016 92.33763672 -99.33984375 92.36328125 C-95.74883967 91.97268081 -93.95262488 90.99473231 -91 89 C-90.34 89 -89.68 89 -89 89 C-84.58288358 80.30891445 -81.51468473 72.2587923 -80.359375 62.51953125 C-80 60 -80 60 -79 59 C-77.50261876 58.9020943 -76.00057108 58.87025136 -74.5 58.875 C-73.6853125 58.87242188 -72.870625 58.86984375 -72.03125 58.8671875 C-70 59 -70 59 -69 60 C-68.83902603 62.31027458 -68.7220842 64.62365992 -68.625 66.9375 C-67.95635597 78.80733617 -64.49158379 90.27253888 -56 99 C-47.90837388 105.63275852 -38.47558372 108.99767464 -28 108 C-20.51449218 106.66630599 -14.8644361 103.94782944 -10 98 C-2.47066828 85.48943101 -0.83216549 70.00172085 -4.1875 55.875 C-5.61140919 51.34008541 -7.20142761 48.84892929 -11 46 C-16.12395988 44.29201337 -21.50801562 44.33991231 -26.875 44 C-27.88830887 43.93513397 -27.88830887 43.93513397 -28.92208862 43.86895752 C-55.2237019 42.23905777 -81.65631315 42.30833335 -108 42 C-107.06591797 35.35253906 -107.06591797 35.35253906 -106.47265625 32.1796875 C-105.82728178 27.83807743 -105.63876652 23.50667118 -105.4375 19.125 C-105.39431641 18.24585937 -105.35113281 17.36671875 -105.30664062 16.4609375 C-105.20130661 14.30744203 -105.10022351 12.15373936 -105 10 C-100.87244046 11.32620899 -98.93440245 12.83568618 -96.375 16.3125 C-95.78332031 17.11429688 -95.19164063 17.91609375 -94.58203125 18.7421875 C-90 25.28148148 -90 25.28148148 -90 28 C-64.59 28 -39.18 28 -13 28 C-12.01 24.7 -11.02 21.4 -10 18 C-8.70438015 15.27278435 -7.4098802 12.68218944 -5.9375 10.0625 C-5.58623047 9.41732422 -5.23496094 8.77214844 -4.87304688 8.10742188 C-3.34663105 5.32293931 -1.76229195 2.64343793 0 0 Z " fill="#FDFCFE" transform="translate(176,39)"/>
<path d="M0 0 C1.49991891 -0.0032277 2.99983754 -0.0065928 4.49975586 -0.01008606 C7.65007245 -0.0160587 10.80036175 -0.01792871 13.95068359 -0.01733398 C17.10731895 -0.01725393 20.26380546 -0.02400104 23.42041016 -0.0378418 C39.60947504 -0.10743616 55.78587695 -0.02779183 71.95675659 0.81757164 C73.38317142 0.89132891 74.80988403 0.95956971 76.23684692 1.02182961 C89.80999116 1.63613314 89.80999116 1.63613314 95.75 6.16796875 C102.15507399 13.89823046 101.35966976 25.77524405 100.75 35.16796875 C99.18796689 46.22423439 95.82894865 55.55080422 86.98828125 62.7265625 C79.88456661 67.30120596 71.85783409 68.21320121 63.71484375 66.546875 C53.49117867 63.85643682 45.94942374 59.18257389 40.3125 50.10546875 C35.83951659 41.86709253 33.7357921 34.74834157 33.1875 25.35546875 C33.14431641 24.66259766 33.10113281 23.96972656 33.05664062 23.25585938 C32.95138547 21.56008189 32.85027137 19.86404823 32.75 18.16796875 C29.78 18.16796875 26.81 18.16796875 23.75 18.16796875 C23.51216797 19.72644531 23.51216797 19.72644531 23.26953125 21.31640625 C21.53532534 31.95533808 19.52542633 41.96761894 10.75 49.16796875 C5.39683893 52.56794943 -1.17307473 51.69727095 -7.25 51.16796875 C-14.59874419 49.349835 -21.37752344 44.49799277 -25.56640625 38.18359375 C-29.22178956 31.22352811 -30.59692231 24.336179 -30.5625 16.54296875 C-30.57861328 15.805625 -30.59472656 15.06828125 -30.61132812 14.30859375 C-30.61542494 9.73654844 -30.11210092 6.77408185 -27.25 3.16796875 C-19.9180501 -1.71999785 -8.51957372 0.0043746 0 0 Z " fill="#2F0270" transform="translate(73.25,80.83203125)"/>
<path d="M0 0 C0.66 0.33 1.32 0.66 2 1 C2.73582924 4.01370731 3.34287302 6.97289738 3.8828125 10.0234375 C4.05467072 10.96238861 4.22652893 11.90133972 4.40359497 12.8687439 C6.42686867 24.08892612 8.1805399 35.35119216 9.875 46.625 C10.04575043 47.75586029 10.21650085 48.88672058 10.39242554 50.05184937 C15.10413714 81.40160296 18.82859358 112.88320855 21.875 144.4375 C21.99528564 145.66766846 22.11557129 146.89783691 22.23950195 148.1652832 C23.67935669 163.95238141 23.67935669 163.95238141 23 170 C20.625 172.75 20.625 172.75 18 174 C17.34 174 16.68 174 16 174 C15.96559814 173.40316406 15.93119629 172.80632812 15.89575195 172.19140625 C13.39587382 130.4570067 8.3701 88.84454833 2.12890625 47.515625 C1.88802277 45.91691307 1.88802277 45.91691307 1.64227295 44.28590393 C0.85117001 39.04480971 0.05119043 33.80534131 -0.76513672 28.56811523 C-1.05838625 26.65350115 -1.35152317 24.7388698 -1.64453125 22.82421875 C-1.78177109 21.96334656 -1.91901093 21.10247437 -2.06040955 20.21551514 C-4.20642172 6.06097044 -4.20642172 6.06097044 -1.5 1.4375 C-0.7575 0.7259375 -0.7575 0.7259375 0 0 Z " fill="#8208D7" transform="translate(186,58)"/>
<path d="M0 0 C-0.81339844 0.80050781 -1.62679687 1.60101563 -2.46484375 2.42578125 C-5.80265043 6.44977779 -5.73059596 10.12705897 -5.5625 15.1875 C-5.54517822 16.03030518 -5.52785645 16.87311035 -5.51000977 17.74145508 C-5.13201429 27.74727422 -2.70907317 35.04519459 4.4140625 42.24609375 C6.0549215 44.06073831 7.01156204 45.77356797 8 48 C2.18317961 48 -0.92052934 45.04170768 -4.94921875 41.25 C-11.50072218 34.0620648 -13.35439575 24.86019875 -13.3125 15.375 C-13.32861328 14.63765625 -13.34472656 13.9003125 -13.36132812 13.140625 C-13.36542494 8.56857969 -12.86210092 5.6061131 -10 2 C-6.3558226 -0.4294516 -4.28758728 -0.16179575 0 0 Z " fill="#220153" transform="translate(56,82)"/>
<path d="M0 0 C6.31613335 2.67057987 11.33946737 8.82488761 14 15.0625 C14.33 16.031875 14.66 17.00125 15 18 C11.875 18.625 11.875 18.625 8 18 C6.06510608 15.58902609 4.68652963 13.12313371 3.26171875 10.3828125 C2.09715959 7.90115035 2.09715959 7.90115035 0 6 C-0.125 2.875 -0.125 2.875 0 0 Z " fill="#A309D5" transform="translate(78,49)"/>
<path d="M0 0 C0.66 0 1.32 0 2 0 C2.391875 1.051875 2.78375 2.10375 3.1875 3.1875 C4.76402557 6.91658932 6.96895425 9.29663487 10 12 C6.00499382 10.6302836 3.19990508 8.74277578 0 6 C-1.32 6.99 -2.64 7.98 -4 9 C-4.66 8.67 -5.32 8.34 -6 8 C-5.38125 7.4225 -4.7625 6.845 -4.125 6.25 C-2.18652947 4.19750179 -1.09985751 2.56633418 0 0 Z " fill="#534A56" transform="translate(98,131)"/>
</svg>
